<svg xmlns="http://www.w3.org/2000/svg" width="240" height="240" viewBox="0 0 1024 1024">
  <path d="M459,580.7c-26,-37.1 -44.6,-53.7 -60.5,-53.7 -8,0 -12.9,2.4 -18.9,9 -5.7,6.5 -8.7,12 -11.6,22 -3.1,10.6 -5.8,15.5 -9.6,17.3a50.5,50.5 0,0 1,-23 3.2c-4.5,-0.5 -9.9,-0.2 -14.4,0.6 -6.4,1.1 -8.3,1 -16.7,-0.6 -9,-1.8 -9.8,-1.8 -15.6,-0.2a33,33 0,0 1,-14.2 0.8,64 64,0 0,1 -9.8,-1.6c-4.8,-2 -6.7,-16.5 -7.4,-57.7 -0.6,-32 0.4,-48.2 4.2,-67.4 7.2,-36.2 23.3,-61.1 48.5,-75.2 7.9,-4.4 17,-7.2 28,-8.6l9.5,-1.3 5.5,3.6a130.6,130.6 0,0 0,63.5 23.1c2.4,0 4.5,0.4 4.7,0.8a535.8,535.8 0,0 1,39.3 40.2c21.5,24 28.9,31.2 36.7,35.6 4.8,2.6 6.2,2.9 14.3,2.9 7.4,0 9.8,-0.4 13.7,-2.3 7,-3.5 18.1,-13.9 34.4,-32.2a399.3,399.3 0,0 1,35.9 -37.3c3.9,-3.4 6.9,-6.4 6.8,-6.9 -0.3,-0.9 3.7,-1.5 13.7,-2.2 15.6,-1 32.9,-7.5 49.9,-18.6a45.8,45.8 0,0 1,10.9 -6.1c0.1,0.4 1.3,0.6 2.6,0.4 4,-0.8 18.9,2.4 27,5.7 28.1,11.7 48.4,39.6 56,77.3 4.8,23.1 6,61.4 3,96 -2,24.4 -2.5,25.5 -13.4,28.6 -2,0.5 -5.4,1.7 -7.7,2.5 -3.7,1.4 -4.7,1.4 -9,0 -2.6,-0.7 -8.3,-1.4 -12.6,-1.4 -6,0 -8.8,-0.5 -11.9,-2 -4.4,-2.3 -6.4,-2.3 -15.8,0.4 -8.5,2.5 -17,2.1 -21.1,-0.9a97.2,97.2 0,0 0,-7.9 -5c-6.9,-3.8 -8.4,-5.5 -10.4,-12 -6.2,-20 -16.8,-30.5 -30.7,-30.5 -15.2,0 -29.9,12.4 -53.7,45.4 -4,5.5 -7.8,10.8 -8.2,11.6 -0.7,1.3 -3.8,1.5 -19.6,1.2A179,179 0,0 1,521 584c-2.9,-0.8 -4.8,-0.6 -8.1,0.5 -3.6,1.3 -7,1.5 -17.9,1 -15.9,-0.9 -20.5,0 -23.8,4.5 -1.3,1.6 -2.6,3 -3,3 -0.4,0 -4.5,-5.6 -9.2,-12.3" fill="#0F74B5" stroke="#0F74B5" stroke-width="1"/>
  <path d="M415,394a131.6,131.6 0,0 1,-45.1 -13c-10,-5.1 -26.8,-16.6 -32.7,-22.3 -3.5,-3.4 -9.6,-10.5 -13.6,-15.8 -25.6,-33.7 -38.6,-77.2 -39,-129.9 0,-17.7 0.7,-22 3.8,-22 0.7,0 2.5,1.8 4,4 4.5,6.8 15.3,17.5 22.9,22.8 19.2,13.3 35.8,18.5 78,24.7 34.8,5 49.5,9.3 78.5,22.8 22,10.2 25.4,11.2 40.7,11.2 15.1,0 17.8,-0.8 40.9,-12a252,252,0 0,1,49.3 -17.4,551 551,0 0,1 30,-5c31.7,-4.5 44,-7.6 60.1,-15.2a96.1,96.1 0,0 0,35.3 -28.1c10.2,-13.1 11.5,-10.9 11.3,19.7 -0.2,44.6 -11.4,84.1 -33,116.7a146,146 0,0 1,-23.9 27.6,222.8 222.8,0 0,1 -35.6,21.7 104.8,104.8 0,0 1,-37.6 8.7c-27,2 -35.4,-1.8 -69,-30.5 -3.7,-3.2 -9,-7 -11.8,-8.5 -4.5,-2.4 -6,-2.7 -15.5,-2.7s-11,0.3 -16.3,2.9a69.8,69.8 0,0 0,-11.9 8c-20.5,17.4 -24,20 -32,24A68.1,68.1 0,0 1,415 394m34,-56.1c8.8,-2.2 19,-7.5 19,-10 0,-0.4 -3.2,-4.2 -7,-8.3 -18,-18.8 -45.5,-29.5 -76,-29.5 -8.8,0 -16.4,1 -17.7,2.4 -1.3,1.2 1,7.6 4.8,13.5 12.2,18.6 29,30 49,33 7.2,1 21,0.5 27.9,-1.1m162.2,-1c7.8,-2 13,-4.5 19.8,-9.1 10.3,-7 20.6,-19 25.1,-29.2 3,-6.8 1.9,-7.6 -11.2,-8.2a115.2,115.2 0,0 0,-67.5 17.2c-8.3,5.5 -21.4,18.4 -21.4,21 0,1.8 6.8,5.8 13.5,8 11.9,3.8 28.8,4 41.7,0.4" fill="#034F8B" stroke="#034F8B" stroke-width="1"/>
  <path d="M673.2,672.1c-15.5,-2 -18.7,-3.7 -18.6,-9.2 0,-1.9 1,-9.5 2.2,-16.9a249,249 0,0 0,2.7 -70.4c-1.9,-12.6 -2,-12.3 0.8,-9.9 1.2,1.1 4,3 6.2,4.2 2.2,1.2 5.5,3.3 7.4,4.6 4.1,3 12.6,3.4 21.1,1 9.4,-2.8 11.4,-2.8 15.8,-0.6 3.1,1.6 6,2.1 12,2.1 4.2,0 9.9,0.7 12.5,1.5 4.3,1.3 5.3,1.3 9,0 2.3,-1 5.8,-2 7.7,-2.6 6.5,-1.9 8.8,-3 9.8,-5.2 1.7,-3.4 1.5,-0.5 -1.3,17 -4,26 -15.5,77.5 -18.4,82.1 -1,1.6 -6.8,2.4 -20.1,2.6 -6.3,0.1 -16.9,0.5 -23.5,0.9 -8.9,0.4 -15.5,0.1 -25.3,-1.2" fill="#117DC0" stroke="#117DC0" stroke-width="1"/>
  <path d="M700.6,771.4c-0.9,-0.8 -1.6,-2 -1.6,-2.4 0,-0.5 -1.1,-1.7 -2.5,-2.6 -2.4,-1.6 -7.7,-2.5 -25.5,-4.4l-14,-1.6c-4.3,-0.5 -7.8,0 -16.7,2.4a66.6,66.6 0,0 1,-11.6 2.6c-0.3,-0.3 0.2,-2.6 1,-5.2 7.9,-26.2 20.8,-77.4 22.9,-91l0.6,-4.2 3,2.5c3.5,3 3.4,3 21.1,5 11.4,1.4 16.6,1.5 29.5,0.7 8.6,-0.5 17.7,-1 20.2,-0.9a76,76 0,0 0,9.8 -0.6c5.3,-0.8 5.3,-0.7 4.6,1.5 -6.7,21.6 -13.9,42.5 -19,55.8 -8.3,21.2 -18.4,44 -19.4,44 -0.5,0 -1.6,-0.7 -2.4,-1.6" fill="#1892CF" stroke="#1892CF" stroke-width="1"/>
  <path d="M336.2,805.2c-12,-21.7 -29,-58.2 -27.1,-58.2a17,17 0,0 0,4.6 -3.4c7.8,-6.9 15.2,-9.2 34.8,-10.7l18.2,-1.5c5.5,-0.6 7,-0.3 11.6,2 3,1.4 6.3,2.6 7.3,2.6 1.6,0 3.3,4.9 11.9,35.2l10.3,36.8c0.2,1.2 -1.3,1.5 -9,1.6 -11.5,0.2 -28,3 -33.1,5.5 -3.3,1.7 -5,1.9 -11.1,1.3 -6.7,-0.6 -7.4,-0.5 -8.8,1.4 -1.3,2 -1.9,1.3 -9.6,-12.6" fill="#1C9FE2" stroke="#1C9FE2" stroke-width="1"/>
  <path d="M403,892.4c-11.1,-5.6 -31,-29 -49.8,-58.3 -4.5,-7.1 -8.2,-13.6 -8.2,-14.4 0,-3 2.8,-4 9.9,-3.3 5.7,0.6 7.5,0.4 10.7,-1.3 6.9,-3.5 39,-7.6 42.2,-5.4 1.6,1.2 8.4,28.4 11.1,44.3 5.5,32.4 -0.2,46.2 -15.9,38.4" fill="#26B9F9" stroke="#26B9F9" stroke-width="1"/>
  <path d="M274,643.3c-5.6,-21.8 -15.2,-75.7 -12.1,-68.7 1.2,2.8 3,3.5 12.6,4.5 6.3,0.6 9.3,0.5 14.2,-0.8 5.8,-1.6 6.7,-1.6 15.6,0.2a34.4,34.4 0,0 0,16.7 0.6c4.5,-0.8 9.9,-1 14.4,-0.6 13,1.2 25,-2.2 28,-7.9l1.7,-3.1 -0.8,4c-0.3,2.2 -0.7,15.8 -0.8,30.1 -0.1,28.8 -0.3,29.7 -6.5,32.9 -4,2 -15,3.9 -23.3,3.8a2278.2,2278.2 0,0 0,-20.7 -0.2c-6,0 -23.9,2 -26.9,3 -1.3,0.6 -3.7,2 -5.3,3.4 -4,3.4 -5.6,3.1 -6.7,-1.3" fill="#117DC0" stroke="#117DC0" stroke-width="1"/>
  <path d="M667,837.8c0,-1 -1,-2.4 -2.2,-3.2 -1.8,-1.3 -5.7,-1.6 -21.3,-1.6 -15,0 -19.8,-0.4 -23,-1.7 -2.2,-0.9 -5.4,-1.6 -7.2,-1.7 -3.7,-0.1 -3.7,1.1 0.7,-14.6l2.7,-9.5 4.9,-0.6a505,505 0,0 1,50.6 0.6c4,0.8 5.2,1.7 6.2,5.5 1.9,6.6 1.7,7.4 -5,18 -3.5,5.8 -6.4,9.7 -6.4,8.8" fill="#20ACEE" stroke="#20ACEE" stroke-width="1"/>
  <path d="M679.9,816.7c0,-0.4 -0.3,-1 -0.4,-1.5l-1,-4a9.7,9.7 0,0 0,-1.9 -4c-2.3,-2 -13,-2.8 -35.9,-2.7 -13,0 -23.7,0 -23.7,-0.3 0,-1.4 11.4,-39.1 11.7,-38.8 0.3,0.2 5.5,-1 11.6,-2.6a41.5,41.5 0,0 1,16.7 -2.4l14,1.6c17.8,2 23,2.8 25.5,4.4 2,1.3 6.3,8.1 6.8,7.5l-5.1,10.6a380.3,380.3 0,0 1,-17.3 32c-0.5,0.5 -1,0.6 -1,0.2" fill="#1C9FE2" stroke="#1C9FE2" stroke-width="1"/>
  <path d="M609.7,893.7c-5,-1.6 -7,-7.5 -7,-19.8 0.2,-11 1,-17.5 4.4,-32.4 3.2,-13.8 3.4,-14 13.4,-10.1 3.1,1.2 8.3,1.5 23,1.6 15.6,0 19.5,0.3 21.3,1.6 1.2,0.8 2.2,2.2 2.2,3 0,3.4 -19.7,29.9 -31.4,42.2 -11.3,11.9 -19.2,16.2 -25.9,14" fill="#26B9F9" stroke="#26B9F9" stroke-width="1"/>
  <path d="M503.1,631.5c-6.6,-3 -14.8,-11.4 -26.4,-26.7l-8.5,-11.1 2.6,-3.4c3.9,-4.8 8.1,-5.7 24.2,-4.9 11,0.6 14.3,0.4 17.9,-0.9 3.3,-1.1 5.2,-1.3 8,-0.5 2.1,0.5 12.1,1.1 22.3,1.2l18.5,0.3 -4.5,6.5a245.6,245.6 0,0 1,-25.6 31.8c-10.8,10.4 -18.3,12.4 -28.5,7.7" fill="#117DC0" stroke="#117DC0" stroke-width="1"/>
  <path d="M303.2,734.3a845.4,845.4 0,0 1,-28 -86.8l2.8,-1.3c1.4,-0.6 3.7,-2.1 5,-3.3 4,-3.2 24.6,-5.6 41,-4.7 14,0.7 27.5,-0.9 33.1,-3.8 1.6,-0.8 3.8,-2.9 4.9,-4.6 1.9,-3.1 1.9,-3.1 2.4,-0.7l2.6,17.4c2.4,17 8,42.3 15,69.6 2.8,10.3 5,19 5,19.3 0,1.3 -3.6,0.5 -8.7,-2a16.4,16.4 0,0 0,-11.6 -2l-18.2,1.5c-19.6,1.5 -27,3.8 -34.8,10.7 -2,1.9 -4.1,3.4 -4.6,3.4s-3.2,-5.7 -5.9,-12.8" fill="#1892CF" stroke="#1892CF" stroke-width="1"/>
</svg>
